<?xml version="1.0" encoding="UTF-8"?>
<svg xmlns="http://www.w3.org/2000/svg" width="1160" height="606" viewBox="0 0 1160 606" role="img" aria-label="my_vimrc Deployment Architecture — GitHub repository clone to user-level Vim and Git configuration targets (architecture diagram)">
        <style>
  svg {
    --bg: #020617;
    --grid: #1e293b;
    --text: #ffffff;
    --text-muted: #94a3b8;
    --text-dim: #475569;
    --lane-fill: rgba(15, 23, 42, 0.22);
    --lane-stroke: #334155;
    --arrow: #64748b;
    --arrow-emphasis: #34d399;
    --mask: #0f172a;
    --frontend-fill: rgba(8, 51, 68, 0.4);
    --frontend-stroke: #22d3ee;
    --backend-fill: rgba(6, 78, 59, 0.4);
    --backend-stroke: #34d399;
    --database-fill: rgba(76, 29, 149, 0.4);
    --database-stroke: #a78bfa;
    --cloud-fill: rgba(120, 53, 15, 0.3);
    --cloud-stroke: #fbbf24;
    --security-fill: rgba(136, 19, 55, 0.4);
    --security-stroke: #fb7185;
    --messagebus-fill: rgba(251, 146, 60, 0.3);
    --messagebus-stroke: #fb923c;
    --external-fill: rgba(30, 41, 59, 0.5);
    --external-stroke: #94a3b8;
    font-family: "JetBrains Mono", ui-monospace, SFMono-Regular, Menlo, Consolas, "DejaVu Sans Mono", "Liberation Mono", monospace;
    background: var(--bg);
  }
  @media (prefers-color-scheme: light) {
    svg {
      --bg: #f8fafc;
      --grid: #e2e8f0;
      --text: #0f172a;
      --text-muted: #64748b;
      --text-dim: #94a3b8;
      --lane-fill: rgba(248, 250, 252, 0.65);
      --lane-stroke: #cbd5e1;
      --arrow: #94a3b8;
      --arrow-emphasis: #059669;
      --mask: #ffffff;
      --frontend-fill: rgba(34, 211, 238, 0.15);
      --frontend-stroke: #0891b2;
      --backend-fill: rgba(52, 211, 153, 0.18);
      --backend-stroke: #059669;
      --database-fill: rgba(167, 139, 250, 0.2);
      --database-stroke: #7c3aed;
      --cloud-fill: rgba(251, 191, 36, 0.18);
      --cloud-stroke: #d97706;
      --security-fill: rgba(251, 113, 133, 0.15);
      --security-stroke: #e11d48;
      --messagebus-fill: rgba(251, 146, 60, 0.15);
      --messagebus-stroke: #ea580c;
      --external-fill: rgba(148, 163, 184, 0.18);
      --external-stroke: #64748b;
    }
  }
  svg[data-theme="light"] {
    --bg: #f8fafc;
    --grid: #e2e8f0;
    --text: #0f172a;
    --text-muted: #64748b;
    --text-dim: #94a3b8;
    --lane-fill: rgba(248, 250, 252, 0.65);
    --lane-stroke: #cbd5e1;
    --arrow: #94a3b8;
    --arrow-emphasis: #059669;
    --mask: #ffffff;
    --frontend-fill: rgba(34, 211, 238, 0.15);
    --frontend-stroke: #0891b2;
    --backend-fill: rgba(52, 211, 153, 0.18);
    --backend-stroke: #059669;
    --database-fill: rgba(167, 139, 250, 0.2);
    --database-stroke: #7c3aed;
    --cloud-fill: rgba(251, 191, 36, 0.18);
    --cloud-stroke: #d97706;
    --security-fill: rgba(251, 113, 133, 0.15);
    --security-stroke: #e11d48;
    --messagebus-fill: rgba(251, 146, 60, 0.15);
    --messagebus-stroke: #ea580c;
    --external-fill: rgba(148, 163, 184, 0.18);
    --external-stroke: #64748b;
  }
  svg[data-theme="dark"] {
    --bg: #020617;
    --grid: #1e293b;
    --text: #ffffff;
    --text-muted: #94a3b8;
    --text-dim: #475569;
    --lane-fill: rgba(15, 23, 42, 0.22);
    --lane-stroke: #334155;
    --arrow: #64748b;
    --arrow-emphasis: #34d399;
    --mask: #0f172a;
    --frontend-fill: rgba(8, 51, 68, 0.4);
    --frontend-stroke: #22d3ee;
    --backend-fill: rgba(6, 78, 59, 0.4);
    --backend-stroke: #34d399;
    --database-fill: rgba(76, 29, 149, 0.4);
    --database-stroke: #a78bfa;
    --cloud-fill: rgba(120, 53, 15, 0.3);
    --cloud-stroke: #fbbf24;
    --security-fill: rgba(136, 19, 55, 0.4);
    --security-stroke: #fb7185;
    --messagebus-fill: rgba(251, 146, 60, 0.3);
    --messagebus-stroke: #fb923c;
    --external-fill: rgba(30, 41, 59, 0.5);
    --external-stroke: #94a3b8;
  }
  .c-bg-rect { fill: var(--bg); }
  .c-grid { stroke: var(--grid); fill: none; }
  .c-mask { fill: var(--mask); stroke: none; }
  .c-frontend { fill: var(--frontend-fill); stroke: var(--frontend-stroke); }
  .c-backend { fill: var(--backend-fill); stroke: var(--backend-stroke); }
  .c-database { fill: var(--database-fill); stroke: var(--database-stroke); }
  .c-cloud { fill: var(--cloud-fill); stroke: var(--cloud-stroke); }
  .c-security { fill: var(--security-fill); stroke: var(--security-stroke); }
  .c-messagebus { fill: var(--messagebus-fill); stroke: var(--messagebus-stroke); }
  .c-external { fill: var(--external-fill); stroke: var(--external-stroke); }
  .t-primary { fill: var(--text); }
  .t-muted { fill: var(--text-muted); }
  .t-dim { fill: var(--text-dim); }
  .t-frontend { fill: var(--frontend-stroke); }
  .t-backend { fill: var(--backend-stroke); }
  .t-database { fill: var(--database-stroke); }
  .t-cloud { fill: var(--cloud-stroke); }
  .t-security { fill: var(--security-stroke); }
  .t-messagebus { fill: var(--messagebus-stroke); }
  .t-external { fill: var(--external-stroke); }
  .a-default { stroke: var(--arrow); fill: none; }
  .a-emphasis { stroke: var(--arrow-emphasis); fill: none; }
  .a-security { stroke: var(--security-stroke); fill: none; stroke-dasharray: 5,5; }
  .a-dashed { stroke: var(--database-stroke); fill: none; stroke-dasharray: 4,4; }
  .m-default { fill: var(--arrow); }
  .m-emphasis { fill: var(--arrow-emphasis); }
  .m-security { fill: var(--security-stroke); }
  .m-dashed { fill: var(--database-stroke); }
  .c-security-group { fill: transparent; stroke: var(--security-stroke); stroke-dasharray: 4,4; }
  .c-region { fill: rgba(251, 191, 36, 0.05); stroke: var(--cloud-stroke); stroke-dasharray: 8,4; }
  .c-lane { fill: var(--lane-fill); stroke: var(--lane-stroke); stroke-dasharray: 6,6; }

        </style>

        <!-- Definitions -->
        <defs>
          <marker id="arrowhead" markerWidth="10" markerHeight="7" refX="9" refY="3.5" orient="auto">
            <polygon points="0 0, 10 3.5, 0 7" class="m-default" />
          </marker>
          <marker id="arrowhead-emphasis" markerWidth="10" markerHeight="7" refX="9" refY="3.5" orient="auto">
            <polygon points="0 0, 10 3.5, 0 7" class="m-emphasis" />
          </marker>
          <marker id="arrowhead-security" markerWidth="10" markerHeight="7" refX="9" refY="3.5" orient="auto">
            <polygon points="0 0, 10 3.5, 0 7" class="m-security" />
          </marker>
          <marker id="arrowhead-dashed" markerWidth="10" markerHeight="7" refX="9" refY="3.5" orient="auto">
            <polygon points="0 0, 10 3.5, 0 7" class="m-dashed" />
          </marker>
          <pattern id="grid" width="40" height="40" patternUnits="userSpaceOnUse">
            <path d="M 40 0 L 0 0 0 40" class="c-grid" stroke-width="0.5"/>
          </pattern>
        </defs>

        <!-- Background -->
        <rect width="100%" height="100%" class="c-bg-rect"/>

        <!-- Background Grid -->
        <rect width="100%" height="100%" fill="url(#grid)" />

        <!-- Boundaries (behind everything) -->
        <rect x="10" y="220" width="190" height="112" rx="12" class="c-region" stroke-width="1"/>
        <text x="18" y="238" class="t-cloud" font-size="9" font-weight="600">Remote source</text>

        <rect x="210" y="220" width="430" height="112" rx="12" class="c-region" stroke-width="1"/>
        <text x="218" y="238" class="t-cloud" font-size="9" font-weight="600">Local clone directory</text>

        <rect x="670" y="50" width="450" height="488" rx="12" class="c-region" stroke-width="1"/>
        <text x="678" y="68" class="t-cloud" font-size="9" font-weight="600">User HOME deployment targets</text>

        <!-- Connection paths (before components for correct z-order) -->
        <path d="M 170 281 L 240 281" class="a-emphasis" stroke-width="1.8" marker-end="url(#arrowhead-emphasis)"/>
        <path d="M 390 281 L 460 281" class="a-emphasis" stroke-width="1.8" marker-end="url(#arrowhead-emphasis)"/>
        <path d="M 610 281 L 647 281 Q 655 281 655 273 L 655 117 Q 655 109 663 109 L 700 109" class="a-default" stroke-width="1.5" marker-end="url(#arrowhead)"/>
        <path d="M 610 281 L 647 281 Q 655 281 655 273 L 655 207 Q 655 199 663 199 L 700 199" class="a-default" stroke-width="1.5" marker-end="url(#arrowhead)"/>
        <path d="M 610 281 L 651 281 Q 655 281 655 285 L 655 285 Q 655 289 659 289 L 700 289" class="a-default" stroke-width="1.5" marker-end="url(#arrowhead)"/>
        <path d="M 610 281 L 647 281 Q 655 281 655 289 L 655 381 Q 655 389 663 389 L 700 389" class="a-dashed" stroke-width="1.5" marker-end="url(#arrowhead-dashed)"/>
        <path d="M 610 281 L 647 281 Q 655 281 655 289 L 655 481 Q 655 489 663 489 L 700 489" class="a-dashed" stroke-width="1.5" marker-end="url(#arrowhead-dashed)"/>
        <path d="M 850 109 L 924.5 109 Q 932.5 109 932.5 117 L 932.5 352 Q 932.5 360 940.5 360 L 1015 360" class="a-security" stroke-width="1.5" marker-end="url(#arrowhead-security)"/>
        <path d="M 870 389 L 940 389" class="a-dashed" stroke-width="1.5" marker-end="url(#arrowhead-dashed)"/>
        <path d="M 535 312 L 535 542 Q 535 550 543 550 L 922 550 Q 930 550 930.4959386958474 542.0153869968569 L 940 389" class="a-emphasis" stroke-width="1.8" marker-end="url(#arrowhead-emphasis)"/>

        <!-- Components -->
        <rect x="40" y="250" width="130" height="62" rx="6" class="c-mask"/>
        <rect x="40" y="250" width="130" height="62" rx="6" class="c-external" stroke-width="1.5"/>
        <text x="105" y="279" class="t-primary" font-size="11" font-weight="600" text-anchor="middle">GitHub repo</text>
        <text x="105" y="295" class="t-muted" font-size="9" text-anchor="middle">origin / upstream</text>

        <rect x="240" y="250" width="150" height="62" rx="6" class="c-mask"/>
        <rect x="240" y="250" width="150" height="62" rx="6" class="c-cloud" stroke-width="1.5"/>
        <text x="315" y="279" class="t-primary" font-size="11" font-weight="600" text-anchor="middle">Local clone</text>
        <text x="315" y="295" class="t-muted" font-size="9" text-anchor="middle">~/workspace/my_vimrc</text>

        <rect x="460" y="250" width="150" height="62" rx="6" class="c-mask"/>
        <rect x="460" y="250" width="150" height="62" rx="6" class="c-backend" stroke-width="1.5"/>
        <text x="535" y="279" class="t-primary" font-size="11" font-weight="600" text-anchor="middle">install.sh</text>
        <text x="535" y="295" class="t-muted" font-size="9" text-anchor="middle">link/copy + PlugInstall</text>

        <rect x="700" y="80" width="150" height="58" rx="6" class="c-mask"/>
        <rect x="700" y="80" width="150" height="58" rx="6" class="c-database" stroke-width="1.5"/>
        <text x="775" y="107" class="t-primary" font-size="11" font-weight="600" text-anchor="middle">~/.vimrc</text>
        <text x="775" y="123" class="t-muted" font-size="9" text-anchor="middle">from repo vimrc</text>

        <rect x="700" y="170" width="150" height="58" rx="6" class="c-mask"/>
        <rect x="700" y="170" width="150" height="58" rx="6" class="c-database" stroke-width="1.5"/>
        <text x="775" y="197" class="t-primary" font-size="11" font-weight="600" text-anchor="middle">~/.gitconfig</text>
        <text x="775" y="213" class="t-muted" font-size="9" text-anchor="middle">from repo gitconfig</text>

        <rect x="700" y="260" width="160" height="58" rx="6" class="c-mask"/>
        <rect x="700" y="260" width="160" height="58" rx="6" class="c-database" stroke-width="1.5"/>
        <text x="780" y="287" class="t-primary" font-size="11" font-weight="600" text-anchor="middle">~/.gitignore_global</text>
        <text x="780" y="303" class="t-muted" font-size="9" text-anchor="middle">from repo gitignore_global</text>

        <rect x="700" y="360" width="170" height="58" rx="6" class="c-mask"/>
        <rect x="700" y="360" width="170" height="58" rx="6" class="c-messagebus" stroke-width="1.5"/>
        <text x="785" y="387" class="t-primary" font-size="11" font-weight="600" text-anchor="middle">plug.vim</text>
        <text x="785" y="403" class="t-muted" font-size="9" text-anchor="middle">~/.vim/autoload/plug.vim</text>

        <rect x="700" y="460" width="190" height="58" rx="6" class="c-mask"/>
        <rect x="700" y="460" width="190" height="58" rx="6" class="c-cloud" stroke-width="1.5"/>
        <text x="795" y="487" class="t-primary" font-size="11" font-weight="600" text-anchor="middle">Fonts dir</text>
        <text x="795" y="503" class="t-muted" font-size="9" text-anchor="middle">~/.local/share/fonts/my_vimrc</text>

        <rect x="940" y="360" width="150" height="58" rx="6" class="c-mask"/>
        <rect x="940" y="360" width="150" height="58" rx="6" class="c-database" stroke-width="1.5"/>
        <text x="1015" y="387" class="t-primary" font-size="11" font-weight="600" text-anchor="middle">Vim plugins</text>
        <text x="1015" y="403" class="t-muted" font-size="9" text-anchor="middle">~/.vim/plugged</text>

        <!-- Connection labels -->
        <rect x="178.4" y="261" width="53.199999999999996" height="14" rx="3" class="c-mask"/>
        <text x="205" y="271" class="t-backend" font-size="8" text-anchor="middle">git clone</text>
        <rect x="391.2" y="261" width="67.6" height="14" rx="3" class="c-mask"/>
        <text x="425" y="271" class="t-backend" font-size="8" text-anchor="middle">./install.sh</text>
        <rect x="625.4" y="158" width="53.199999999999996" height="14" rx="3" class="c-mask"/>
        <text x="652" y="168" class="t-muted" font-size="8" text-anchor="middle">link/copy</text>
        <rect x="628.4" y="215" width="53.199999999999996" height="14" rx="3" class="c-mask"/>
        <text x="655" y="225" class="t-muted" font-size="8" text-anchor="middle">link/copy</text>
        <rect x="628.4" y="293" width="53.199999999999996" height="14" rx="3" class="c-mask"/>
        <text x="655" y="303" class="t-muted" font-size="8" text-anchor="middle">link/copy</text>
        <rect x="625.8" y="345" width="48.4" height="14" rx="3" class="c-mask"/>
        <text x="650" y="355" class="t-messagebus" font-size="8" text-anchor="middle">vim-plug</text>
        <rect x="591" y="442" width="82" height="14" rx="3" class="c-mask"/>
        <text x="632" y="452" class="t-messagebus" font-size="8" text-anchor="middle">--install-fonts</text>
        <rect x="878.2" y="220" width="67.6" height="14" rx="3" class="c-mask"/>
        <text x="912" y="230" class="t-security" font-size="8" text-anchor="middle">plugin specs</text>
        <rect x="883.2" y="369" width="43.6" height="14" rx="3" class="c-mask"/>
        <text x="905" y="379" class="t-messagebus" font-size="8" text-anchor="middle">manager</text>
        <rect x="699.8" y="540" width="96.39999999999999" height="14" rx="3" class="c-mask"/>
        <text x="748" y="550" class="t-backend" font-size="8" text-anchor="middle">PlugInstall --sync</text>

        <!-- Legend -->
        <text x="40" y="577" class="t-primary" font-size="9" font-weight="600">Legend</text>
        <rect x="40" y="582" width="14" height="9" rx="2" class="c-external" stroke-width="1"/>
        <text x="60" y="590" class="t-muted" font-size="8">External</text>
        <rect x="138" y="582" width="14" height="9" rx="2" class="c-cloud" stroke-width="1"/>
        <text x="158" y="590" class="t-muted" font-size="8">Cloud</text>
        <rect x="221" y="582" width="14" height="9" rx="2" class="c-backend" stroke-width="1"/>
        <text x="241" y="590" class="t-muted" font-size="8">Backend</text>
        <rect x="314" y="582" width="14" height="9" rx="2" class="c-database" stroke-width="1"/>
        <text x="334" y="590" class="t-muted" font-size="8">Database</text>
        <rect x="412" y="582" width="14" height="9" rx="2" class="c-messagebus" stroke-width="1"/>
        <text x="432" y="590" class="t-muted" font-size="8">Message bus</text>
      </svg>
